{
	"patcher" : 	{
		"fileversion" : 1,
		"appversion" : 		{
			"major" : 8,
			"minor" : 0,
			"revision" : 4,
			"architecture" : "x64",
			"modernui" : 1
		}
,
		"classnamespace" : "box",
		"rect" : [ 59.0, 107.0, 640.0, 480.0 ],
		"bglocked" : 0,
		"openinpresentation" : 0,
		"default_fontsize" : 12.0,
		"default_fontface" : 0,
		"default_fontname" : "Arial",
		"gridonopen" : 1,
		"gridsize" : [ 15.0, 15.0 ],
		"gridsnaponopen" : 1,
		"objectsnaponopen" : 1,
		"statusbarvisible" : 2,
		"toolbarvisible" : 1,
		"lefttoolbarpinned" : 0,
		"toptoolbarpinned" : 0,
		"righttoolbarpinned" : 0,
		"bottomtoolbarpinned" : 0,
		"toolbars_unpinned_last_save" : 0,
		"tallnewobj" : 0,
		"boxanimatetime" : 200,
		"enablehscroll" : 1,
		"enablevscroll" : 1,
		"devicewidth" : 0.0,
		"description" : "",
		"digest" : "",
		"tags" : "",
		"style" : "",
		"subpatcher_template" : "",
		"boxes" : [ 			{
				"box" : 				{
					"id" : "obj-981",
					"maxclass" : "message",
					"numinlets" : 2,
					"numoutlets" : 1,
					"outlettype" : [ "" ],
					"patching_rect" : [ 50.0, 231.0, 50.0, 22.0 ],
					"text" : "0."
				}

			}
, 			{
				"box" : 				{
					"id" : "obj-976",
					"maxclass" : "button",
					"numinlets" : 1,
					"numoutlets" : 1,
					"outlettype" : [ "bang" ],
					"parameter_enable" : 0,
					"patching_rect" : [ 405.25, 182.0, 24.0, 24.0 ]
				}

			}
, 			{
				"box" : 				{
					"id" : "obj-977",
					"maxclass" : "newobj",
					"numinlets" : 2,
					"numoutlets" : 1,
					"outlettype" : [ "int" ],
					"patching_rect" : [ 446.75, 225.5, 29.5, 22.0 ],
					"text" : "*"
				}

			}
, 			{
				"box" : 				{
					"id" : "obj-978",
					"maxclass" : "newobj",
					"numinlets" : 1,
					"numoutlets" : 1,
					"outlettype" : [ "" ],
					"patching_rect" : [ 469.25, 133.0, 140.0, 22.0 ],
					"text" : "if $i1 == 1 then 3. else 1."
				}

			}
, 			{
				"box" : 				{
					"id" : "obj-979",
					"maxclass" : "newobj",
					"numinlets" : 0,
					"numoutlets" : 1,
					"outlettype" : [ "" ],
					"patching_rect" : [ 469.25, 100.0, 69.0, 22.0 ],
					"text" : "r slowdown"
				}

			}
, 			{
				"box" : 				{
					"id" : "obj-894",
					"maxclass" : "newobj",
					"numinlets" : 2,
					"numoutlets" : 1,
					"outlettype" : [ "float" ],
					"patching_rect" : [ 50.0, 262.0, 47.0, 22.0 ],
					"text" : "* 1000."
				}

			}
, 			{
				"box" : 				{
					"comment" : "",
					"id" : "obj-985",
					"index" : 1,
					"maxclass" : "inlet",
					"numinlets" : 0,
					"numoutlets" : 1,
					"outlettype" : [ "" ],
					"patching_rect" : [ 44.0, 40.0, 30.0, 30.0 ]
				}

			}
, 			{
				"box" : 				{
					"comment" : "",
					"id" : "obj-986",
					"index" : 1,
					"maxclass" : "outlet",
					"numinlets" : 1,
					"numoutlets" : 0,
					"patching_rect" : [ 446.75, 351.564086999999972, 30.0, 30.0 ]
				}

			}
 ],
		"lines" : [ 			{
				"patchline" : 				{
					"destination" : [ "obj-977", 0 ],
					"source" : [ "obj-894", 0 ]
				}

			}
, 			{
				"patchline" : 				{
					"destination" : [ "obj-981", 0 ],
					"source" : [ "obj-976", 0 ]
				}

			}
, 			{
				"patchline" : 				{
					"destination" : [ "obj-986", 0 ],
					"source" : [ "obj-977", 0 ]
				}

			}
, 			{
				"patchline" : 				{
					"destination" : [ "obj-976", 0 ],
					"order" : 1,
					"source" : [ "obj-978", 0 ]
				}

			}
, 			{
				"patchline" : 				{
					"destination" : [ "obj-977", 1 ],
					"order" : 0,
					"source" : [ "obj-978", 0 ]
				}

			}
, 			{
				"patchline" : 				{
					"destination" : [ "obj-978", 0 ],
					"source" : [ "obj-979", 0 ]
				}

			}
, 			{
				"patchline" : 				{
					"destination" : [ "obj-894", 0 ],
					"source" : [ "obj-981", 0 ]
				}

			}
, 			{
				"patchline" : 				{
					"destination" : [ "obj-981", 1 ],
					"order" : 0,
					"source" : [ "obj-985", 0 ]
				}

			}
, 			{
				"patchline" : 				{
					"destination" : [ "obj-981", 0 ],
					"order" : 1,
					"source" : [ "obj-985", 0 ]
				}

			}
 ]
	}

}
